<svg width="155" height="60" viewBox="0 0 155 60" fill="none" xmlns="http://www.w3.org/2000/svg">
    <g clip-path="url(#clip0_22_573)">
        <path d="M0 29.9934C0 46.5592 13.4271 59.9858 29.9922 59.9854C46.5583 59.9858 59.9854 46.5592 59.9854 29.9934C59.9864 13.4276 46.5583 0 29.9922 0C13.4271 0 0 13.4281 0 29.9934Z" fill="#EC5565"/>
        <path d="M59.9268 31.7909C59.9089 31.7732 59.8914 31.7551 59.8731 31.7373C59.8292 31.6918 48.4579 20.3208 48.4125 20.2768C48.3687 20.2314 48.3247 20.1875 48.2796 20.1437C47.222 19.0513 45.7472 18.3659 44.1105 18.3659H31.1455C31.1083 18.3207 31.0674 18.2827 31.0215 18.2463C30.9816 18.196 23.2094 10.4238 23.1592 10.384C23.0071 10.1921 22.7823 10.0612 22.5182 10.0612H17.5354C17.0764 10.0612 16.7049 10.433 16.7049 10.8918V18.3659H15.8743C12.6692 18.3659 10.061 20.9738 10.061 24.1793V39.1278C10.061 39.392 10.1919 39.6167 10.3837 39.7687C10.4235 39.819 10.4666 39.8622 10.5169 39.9019C10.5567 39.9522 30.4559 59.8513 30.5063 59.8914C30.53 59.9211 30.5586 59.9447 30.5852 59.9703C46.2752 59.6652 59.0082 47.3228 59.9268 31.7909Z" fill="#D94453"/>
        <path d="M44.1108 18.366H18.3662V15.0441H22.5186C22.9776 15.0441 23.349 14.6722 23.349 14.2137V10.8916C23.349 10.433 22.9776 10.0612 22.5186 10.0612H17.5357C17.0766 10.0612 16.7053 10.4331 16.7053 10.8916V18.3659H15.8748C12.6697 18.3659 10.0615 20.9738 10.0615 24.1792V39.1279C10.0615 39.5869 10.4329 39.9583 10.8919 39.9583H31.6539V49.0935C31.6539 49.5526 32.0253 49.924 32.4843 49.924C32.9434 49.924 33.3148 49.5526 33.3148 49.0935V39.9583H49.0938C49.5529 39.9583 49.9243 39.5869 49.9243 39.1279V24.1793C49.9243 20.9739 47.3161 18.366 44.1108 18.366ZM18.3662 11.7221H21.6881V13.383H18.3662V11.7221ZM11.7223 24.1793C11.7223 21.8899 13.5852 20.027 15.8746 20.027C18.164 20.027 20.0269 21.8899 20.0269 24.1793V38.2973H11.7223V24.1793ZM48.2634 38.2973H21.6881V24.1793C21.6881 22.5534 21.0152 21.0831 19.9354 20.027H44.1111C46.4005 20.027 48.2634 21.8899 48.2634 24.1793V38.2973Z" fill="#F4F6F9"/>
        <path d="M17.5359 34.145H14.214C13.7549 34.145 13.3835 34.5164 13.3835 34.9754C13.3835 35.4344 13.7549 35.8058 14.214 35.8058H17.5359C17.9949 35.8058 18.3663 35.4344 18.3663 34.9754C18.3664 34.5164 17.9949 34.145 17.5359 34.145Z" fill="#F4F6F9"/>
    </g>
    <path fill-rule="evenodd" clip-rule="evenodd" d="M83.1653 21.3689C83.5937 20.9821 84.2882 20.9821 84.7165 21.3689L93.492 29.2924C93.9204 29.6792 93.9204 30.3062 93.492 30.693L84.7165 38.6164C84.2882 39.0032 83.5937 39.0032 83.1653 38.6164C82.7369 38.2296 82.7369 37.6026 83.1653 37.2158L90.0681 30.9831H69.3152C68.7094 30.9831 68.2183 30.5397 68.2183 29.9927C68.2183 29.4457 68.7094 29.0022 69.3152 29.0022H90.0681L83.1653 22.7696C82.7369 22.3828 82.7369 21.7557 83.1653 21.3689Z" fill="#1C274C"/>
    <g clip-path="url(#clip1_22_573)">
        <path d="M123.258 2.33258L122.962 2.51181C122.491 2.79693 122.047 3.11572 121.632 3.46405L122.487 2.86286H129.741L131.06 12.8486L124.466 19.4425L117.872 24.0257V29.3107C117.872 33.0019 119.802 36.4248 122.959 38.3362L129.901 42.538L115.235 51.0932H112.406L107.134 47.9021C103.976 45.9907 102.047 42.5678 102.047 38.8765V21.1049C102.047 17.4125 103.978 13.9887 107.137 12.0777L122.962 2.50533C123.06 2.44601 123.159 2.38843 123.258 2.33258Z" fill="url(#paint0_radial_22_573)"/>
        <path d="M123.258 2.33258L122.962 2.51181C122.491 2.79693 122.047 3.11572 121.632 3.46405L122.487 2.86286H129.741L131.06 12.8486L124.466 19.4425L117.872 24.0257V29.3107C117.872 33.0019 119.802 36.4248 122.959 38.3362L129.901 42.538L115.235 51.0932H112.406L107.134 47.9021C103.976 45.9907 102.047 42.5678 102.047 38.8765V21.1049C102.047 17.4125 103.978 13.9887 107.137 12.0777L122.962 2.50533C123.06 2.44601 123.159 2.38843 123.258 2.33258Z" fill="url(#paint1_linear_22_573)"/>
        <path d="M138.973 23.3988V29.3073C138.973 32.9985 137.044 36.4214 133.886 38.3328L118.061 47.9119C114.823 49.8714 110.795 49.9421 107.501 48.124L122.959 57.4811C126.318 59.514 130.527 59.514 133.886 57.4811L149.711 47.902C152.869 45.9905 154.798 42.5677 154.798 38.8764V34.6084L153.479 32.6302L138.973 23.3988Z" fill="url(#paint2_radial_22_573)"/>
        <path d="M138.973 23.3988V29.3073C138.973 32.9985 137.044 36.4214 133.886 38.3328L118.061 47.9119C114.823 49.8714 110.795 49.9421 107.501 48.124L122.959 57.4811C126.318 59.514 130.527 59.514 133.886 57.4811L149.711 47.902C152.869 45.9905 154.798 42.5677 154.798 38.8764V34.6084L153.479 32.6302L138.973 23.3988Z" fill="url(#paint3_linear_22_573)"/>
        <path d="M149.708 12.0776L133.883 2.50524C130.63 0.537538 126.579 0.476585 123.277 2.32236L122.962 2.51253C119.803 4.42359 117.873 7.8473 117.873 11.5398V24.0469L122.962 20.9681C126.319 18.9375 130.526 18.9375 133.883 20.9681L149.708 30.5404C152.769 32.3918 154.676 35.6626 154.792 39.2221C154.796 39.1071 154.798 38.992 154.798 38.8764V21.1048C154.798 17.4124 152.868 13.9886 149.708 12.0776Z" fill="url(#paint4_radial_22_573)"/>
        <path d="M149.708 12.0776L133.883 2.50524C130.63 0.537538 126.579 0.476585 123.277 2.32236L122.962 2.51253C119.803 4.42359 117.873 7.8473 117.873 11.5398V24.0469L122.962 20.9681C126.319 18.9375 130.526 18.9375 133.883 20.9681L149.708 30.5404C152.769 32.3918 154.676 35.6626 154.792 39.2221C154.796 39.1071 154.798 38.992 154.798 38.8764V21.1048C154.798 17.4124 152.868 13.9886 149.708 12.0776Z" fill="url(#paint5_linear_22_573)"/>
    </g>
    <defs>
        <radialGradient id="paint0_radial_22_573" cx="0" cy="0" r="1" gradientUnits="userSpaceOnUse" gradientTransform="translate(119.743 12.3716) rotate(110.528) scale(44.0017 76.748)">
            <stop offset="0.06441" stop-color="#AE7FE2"/>
            <stop offset="1" stop-color="#0078D4"/>
        </radialGradient>
        <linearGradient id="paint1_linear_22_573" x1="119.866" y1="48.282" x2="113.588" y2="37.4235" gradientUnits="userSpaceOnUse">
            <stop stop-color="#114A8B"/>
            <stop offset="1" stop-color="#0078D4" stop-opacity="0"/>
        </linearGradient>
        <radialGradient id="paint2_radial_22_573" cx="0" cy="0" r="1" gradientUnits="userSpaceOnUse" gradientTransform="translate(110.527 46.2809) rotate(-8.36717) scale(40.9482 27.0491)">
            <stop offset="0.133928" stop-color="#D59DFF"/>
            <stop offset="1" stop-color="#5E438F"/>
        </radialGradient>
        <linearGradient id="paint3_linear_22_573" x1="149.993" y1="31.8083" x2="143.266" y2="41.4549" gradientUnits="userSpaceOnUse">
            <stop stop-color="#493474"/>
            <stop offset="1" stop-color="#8C66BA" stop-opacity="0"/>
        </linearGradient>
        <radialGradient id="paint4_radial_22_573" cx="0" cy="0" r="1" gradientUnits="userSpaceOnUse" gradientTransform="translate(150.915 33.2949) rotate(-165.772) scale(32.8675 55.3293)">
            <stop offset="0.0584996" stop-color="#50E6FF"/>
            <stop offset="1" stop-color="#436DCD"/>
        </radialGradient>
        <linearGradient id="paint5_linear_22_573" x1="119.159" y1="2.37306" x2="129.065" y2="2.37306" gradientUnits="userSpaceOnUse">
            <stop stop-color="#2D3F80"/>
            <stop offset="1" stop-color="#436DCD" stop-opacity="0"/>
        </linearGradient>
        <clipPath id="clip0_22_573">
            <rect width="59.9854" height="59.9854" fill="white"/>
        </clipPath>
        <clipPath id="clip1_22_573">
            <rect width="52.7508" height="58.0259" fill="white" transform="translate(102.047 0.979721)"/>
        </clipPath>
    </defs>
</svg>
