<svg xmlns="http://www.w3.org/2000/svg" width="1440" height="1024" viewBox="0 0 1440 1024" fill="none">
    <path d="M1391.84 48.6133H-74.8417V770.386H1391.84V48.6133Z" fill="black"/>
    <path d="M1503 865H-186V-46H1503L1503 865ZM-183.817 863.12H1500.82V-44.1204H-183.817V863.12Z" fill="#B3B3B3"/>
    <path d="M1501.91 817.664H-184.909V819.544H1501.91V817.664Z" fill="#B3B3B3"/>
    <path d="M1501.91 772.207H-184.909V774.087H1501.91V772.207Z" fill="#B3B3B3"/>
    <path d="M1501.91 726.751H-184.909V728.631H1501.91V726.751Z" fill="#B3B3B3"/>
    <path d="M1501.91 681.295H-184.909V683.175H1501.91V681.295Z" fill="#B3B3B3"/>
    <path d="M1501.91 635.84H-184.909V637.719H1501.91V635.84Z" fill="#B3B3B3"/>
    <path d="M1501.91 590.384H-184.909V592.263H1501.91V590.384Z" fill="#B3B3B3"/>
    <path d="M1501.91 544.928H-184.909V546.807H1501.91V544.928Z" fill="#B3B3B3"/>
    <path d="M1501.91 499.472H-184.909V501.352H1501.91V499.472Z" fill="#B3B3B3"/>
    <path d="M1501.91 454.016H-184.909V455.896H1501.91V454.016Z" fill="#B3B3B3"/>
    <path d="M1501.91 408.56H-184.909V410.44H1501.91V408.56Z" fill="#B3B3B3"/>
    <path d="M1501.91 363.104H-184.909V364.984H1501.91V363.104Z" fill="#B3B3B3"/>
    <path d="M1501.91 317.647H-184.909V319.527H1501.91V317.647Z" fill="#B3B3B3"/>
    <path d="M1501.91 272.191H-184.909V274.071H1501.91V272.191Z" fill="#B3B3B3"/>
    <path d="M1501.91 226.735H-184.909V228.615H1501.91V226.735Z" fill="#B3B3B3"/>
    <path d="M1501.91 181.28H-184.909V183.159H1501.91V181.28Z" fill="#B3B3B3"/>
    <path d="M1501.91 135.824H-184.909V137.703H1501.91V135.824Z" fill="#B3B3B3"/>
    <path d="M1501.91 90.3676H-184.909V92.2473H1501.91V90.3676Z" fill="#B3B3B3"/>
    <path d="M1501.91 44.9121H-184.909V46.7917H1501.91V44.9121Z" fill="#B3B3B3"/>
    <path d="M1501.91 -0.543949H-184.909V1.33569H1501.91V-0.543949Z" fill="#B3B3B3"/>
    <path d="M1451.88 -45.0602H1449.7V864.06H1451.88V-45.0602Z" fill="#B3B3B3"/>
    <path d="M1400.77 -45.0602H1398.59V864.06H1400.77V-45.0602Z" fill="#B3B3B3"/>
    <path d="M1349.65 -45.0602H1347.47V864.06H1349.65V-45.0602Z" fill="#B3B3B3"/>
    <path d="M1298.54 -45.0602H1296.35V864.06H1298.54V-45.0602Z" fill="#B3B3B3"/>
    <path d="M1247.42 -45.0602H1245.24V864.06H1247.42V-45.0602Z" fill="#B3B3B3"/>
    <path d="M1196.31 -45.0602H1194.12V864.06H1196.31V-45.0602Z" fill="#B3B3B3"/>
    <path d="M1145.19 -45.0602H1143.01V864.06H1145.19V-45.0602Z" fill="#B3B3B3"/>
    <path d="M1094.07 -45.0602H1091.89V864.06H1094.07V-45.0602Z" fill="#B3B3B3"/>
    <path d="M1042.96 -45.0602H1040.78V864.06H1042.96V-45.0602Z" fill="#B3B3B3"/>
    <path d="M991.843 -45.0602H989.661V864.06H991.843V-45.0602Z" fill="#B3B3B3"/>
    <path d="M940.729 -45.0602H938.546V864.06H940.729V-45.0602Z" fill="#B3B3B3"/>
    <path d="M889.611 -45.0602H887.428V864.06H889.611V-45.0602Z" fill="#B3B3B3"/>
    <path d="M838.496 -45.0602H836.313V864.06H838.496V-45.0602Z" fill="#B3B3B3"/>
    <path d="M787.38 -45.0602H785.198V864.06H787.38V-45.0602Z" fill="#B3B3B3"/>
    <path d="M736.265 -45.0602H734.082V864.06H736.265V-45.0602Z" fill="#B3B3B3"/>
    <path d="M685.149 -45.0602H682.967V864.06H685.149V-45.0602Z" fill="#B3B3B3"/>
    <path d="M634.034 -45.0602H631.851V864.06H634.034V-45.0602Z" fill="#B3B3B3"/>
    <path d="M582.918 -45.0602H580.736V864.06H582.918V-45.0602Z" fill="#B3B3B3"/>
    <path d="M531.803 -45.0602H529.62V864.06H531.803V-45.0602Z" fill="#B3B3B3"/>
    <path d="M480.687 -45.0602H478.504V864.06H480.687V-45.0602Z" fill="#B3B3B3"/>
    <path d="M429.57 -45.0602H427.388V864.06H429.57V-45.0602Z" fill="#B3B3B3"/>
    <path d="M378.454 -45.0602H376.272V864.06H378.454V-45.0602Z" fill="#B3B3B3"/>
    <path d="M327.339 -45.0602H325.156V864.06H327.339V-45.0602Z" fill="#B3B3B3"/>
    <path d="M276.224 -45.0602H274.041V864.06H276.224V-45.0602Z" fill="#B3B3B3"/>
    <path d="M225.108 -45.0602H222.926V864.06H225.108V-45.0602Z" fill="#B3B3B3"/>
    <path d="M173.993 -45.0602H171.81V864.06H173.993V-45.0602Z" fill="#B3B3B3"/>
    <path d="M122.877 -45.0602H120.694V864.06H122.877V-45.0602Z" fill="#B3B3B3"/>
    <path d="M71.7616 -45.0602H69.579V864.06H71.7616V-45.0602Z" fill="#B3B3B3"/>
    <path d="M20.6464 -45.0602H18.4639V864.06H20.6464V-45.0602Z" fill="#B3B3B3"/>
    <path d="M-30.4708 -45.0602H-32.6534V864.06H-30.4708V-45.0602Z" fill="#B3B3B3"/>
    <path d="M-81.586 -45.0602H-83.7686V864.06H-81.586V-45.0602Z" fill="#B3B3B3"/>
    <path d="M-132.702 -45.0602H-134.884V864.06H-132.702V-45.0602Z" fill="#B3B3B3"/>
    <path d="M0 0H1442V1025H0V0Z" fill="url(#paint0_linear_27_885)"/>
    <path d="M0 0H1442V1025H0V0Z" fill="url(#paint1_linear_27_885)"/>
    <path d="M0 0H1440V1024H0V0Z" fill="url(#paint2_radial_27_885)"/>
    <path d="M0 0H1440V1024H0V0Z" fill="url(#paint3_radial_27_885)"/>
    <defs>
        <linearGradient id="paint0_linear_27_885" x1="640.345" y1="86.6995" x2="654.793" y2="1625.84" gradientUnits="userSpaceOnUse">
            <stop stop-color="white"/>
            <stop offset="0.300891" stop-color="#F8F8F8" stop-opacity="0.791566"/>
            <stop offset="1" stop-color="#DFDFDF" stop-opacity="0"/>
        </linearGradient>
        <linearGradient id="paint1_linear_27_885" x1="560.112" y1="1284.13" x2="543.799" y2="-89.9346" gradientUnits="userSpaceOnUse">
            <stop offset="0.580697" stop-color="white" stop-opacity="0.98"/>
            <stop offset="1" stop-color="#B9B9B9" stop-opacity="0"/>
        </linearGradient>
        <radialGradient id="paint2_radial_27_885" cx="0" cy="0" r="1" gradientUnits="userSpaceOnUse" gradientTransform="translate(1515.32 320.064) rotate(166.15) scale(524.29 667.147)">
            <stop stop-color="white"/>
            <stop offset="1" stop-color="#D9D9D9" stop-opacity="0"/>
        </radialGradient>
        <radialGradient id="paint3_radial_27_885" cx="0" cy="0" r="1" gradientUnits="userSpaceOnUse" gradientTransform="translate(87.5 277.5) rotate(42.0934) scale(320.732 451.029)">
            <stop stop-color="white"/>
            <stop offset="0.956423" stop-color="#D9D9D9" stop-opacity="0"/>
        </radialGradient>
    </defs>
</svg>