<svg width="71" height="26" viewBox="0 0 71 26" fill="none" xmlns="http://www.w3.org/2000/svg">
    <g clip-path="url(#clip0_2_339)">
        <path d="M0 12.993C0 20.1692 5.81656 25.9856 12.9925 25.9854C20.1688 25.9856 25.9854 20.1692 25.9854 12.993C25.9858 5.81677 20.1688 0 12.9925 0C5.81656 0 0 5.81697 0 12.993Z" fill="#EC5565"/>
        <path d="M25.9601 13.7717C25.9523 13.764 25.9447 13.7562 25.9368 13.7484C25.9178 13.7287 20.9918 8.80289 20.9721 8.78381C20.9532 8.76417 20.9341 8.74514 20.9145 8.72616C20.4564 8.25294 19.8175 7.95604 19.1085 7.95604H13.4922C13.476 7.93644 13.4583 7.92 13.4384 7.90422C13.4212 7.88244 10.0543 4.51556 10.0325 4.49831C9.96663 4.41517 9.86924 4.35848 9.75484 4.35848H7.59633C7.39748 4.35848 7.23654 4.51952 7.23654 4.71827V7.95604H6.87676C5.48832 7.95604 4.35846 9.08574 4.35846 10.4744V16.95C4.35846 17.0644 4.41515 17.1618 4.49823 17.2276C4.51549 17.2494 4.53417 17.2681 4.55594 17.2853C4.57319 17.3071 13.1934 25.9273 13.2153 25.9447C13.2255 25.9576 13.2379 25.9678 13.2494 25.9789C20.0463 25.8467 25.5621 20.5 25.9601 13.7717Z" fill="#D94453"/>
        <path d="M19.1085 7.95609H7.95607V6.51704H9.75485C9.9537 6.51704 10.1146 6.35596 10.1146 6.15731V4.71822C10.1146 4.51952 9.9537 4.35848 9.75485 4.35848H7.59629C7.39744 4.35848 7.23655 4.51957 7.23655 4.71822V7.95604H6.87682C5.48838 7.95604 4.35852 9.08574 4.35852 10.4743V16.95C4.35852 17.1489 4.51941 17.3098 4.71826 17.3098H13.7122V21.2671C13.7122 21.4659 13.8731 21.6268 14.072 21.6268C14.2708 21.6268 14.4317 21.4659 14.4317 21.2671V17.3098H21.2671C21.466 17.3098 21.6269 17.1489 21.6269 16.95V10.4744C21.6269 9.08579 20.497 7.95609 19.1085 7.95609ZM7.95607 5.07795H9.39511V5.79747H7.95607V5.07795ZM5.07794 10.4744C5.07794 9.48262 5.88496 8.67561 6.87672 8.67561C7.86847 8.67561 8.67549 9.48262 8.67549 10.4744V16.5902H5.07794V10.4744ZM20.9074 16.5902H9.39511V10.4744C9.39511 9.77004 9.10359 9.13309 8.63586 8.67561H19.1086C20.1004 8.67561 20.9074 9.48262 20.9074 10.4744V16.5902Z" fill="#F4F6F9"/>
        <path d="M7.59626 14.7915H6.15722C5.95837 14.7915 5.79749 14.9523 5.79749 15.1512C5.79749 15.35 5.95837 15.5109 6.15722 15.5109H7.59626C7.79511 15.5109 7.956 15.35 7.956 15.1512C7.95605 14.9523 7.79511 14.7915 7.59626 14.7915Z" fill="#F4F6F9"/>
    </g>
    <path fill-rule="evenodd" clip-rule="evenodd" d="M37.9995 9.2569C38.1851 9.08934 38.4859 9.08934 38.6715 9.2569L42.473 12.6893C42.6586 12.8569 42.6586 13.1285 42.473 13.2961L38.6715 16.7285C38.4859 16.896 38.1851 16.896 37.9995 16.7285C37.814 16.5609 37.814 16.2893 37.9995 16.1217L40.9898 13.4217H31.9997C31.7373 13.4217 31.5245 13.2296 31.5245 12.9927C31.5245 12.7557 31.7373 12.5636 31.9997 12.5636H40.9898L37.9995 9.86367C37.814 9.69611 37.814 9.42445 37.9995 9.2569Z" fill="#1C274C"/>
    <g clip-path="url(#clip1_2_339)">
        <path d="M57.34 1.01048L57.2116 1.08812C57.0074 1.21163 56.8151 1.34973 56.6356 1.50062L57.0058 1.24019H60.1483L60.7196 5.56597L57.8632 8.4224L55.0067 10.4078V12.6973C55.0067 14.2963 55.8425 15.7791 57.2104 16.6071L60.2175 18.4273L53.8642 22.1334H52.6388L50.355 20.751C48.987 19.9229 48.1513 18.4402 48.1513 16.8411V9.14256C48.1513 7.54302 48.9875 6.05985 50.3562 5.232L57.2116 1.08531C57.2541 1.05961 57.2969 1.03467 57.34 1.01048Z" fill="url(#paint0_radial_2_339)"/>
        <path d="M57.34 1.01048L57.2116 1.08812C57.0074 1.21163 56.8151 1.34973 56.6356 1.50062L57.0058 1.24019H60.1483L60.7196 5.56597L57.8632 8.4224L55.0067 10.4078V12.6973C55.0067 14.2963 55.8425 15.7791 57.2104 16.6071L60.2175 18.4273L53.8642 22.1334H52.6388L50.355 20.751C48.987 19.9229 48.1513 18.4402 48.1513 16.8411V9.14256C48.1513 7.54302 48.9875 6.05985 50.3562 5.232L57.2116 1.08531C57.2541 1.05961 57.2969 1.03467 57.34 1.01048Z" fill="url(#paint1_linear_2_339)"/>
        <path d="M64.1474 10.1363V12.6958C64.1474 14.2948 63.3116 15.7776 61.9437 16.6056L55.0883 20.7552C53.6859 21.6041 51.941 21.6347 50.5139 20.8471L57.2104 24.9005C58.6652 25.7812 60.4888 25.7812 61.9437 24.9005L68.7991 20.7509C70.167 19.9229 71.0027 18.4401 71.0027 16.8411V14.9922L70.4314 14.1353L64.1474 10.1363Z" fill="url(#paint2_radial_2_339)"/>
        <path d="M64.1474 10.1363V12.6958C64.1474 14.2948 63.3116 15.7776 61.9437 16.6056L55.0883 20.7552C53.6859 21.6041 51.941 21.6347 50.5139 20.8471L57.2104 24.9005C58.6652 25.7812 60.4888 25.7812 61.9437 24.9005L68.7991 20.7509C70.167 19.9229 71.0027 18.4401 71.0027 16.8411V14.9922L70.4314 14.1353L64.1474 10.1363Z" fill="url(#paint3_linear_2_339)"/>
        <path d="M68.7979 5.23195L61.9425 1.08526C60.5333 0.232864 58.7785 0.206459 57.3478 1.00604L57.2117 1.08842C55.843 1.91628 55.0068 3.39942 55.0068 4.99898V10.417L57.2117 9.08327C58.6659 8.20366 60.4882 8.20366 61.9425 9.08327L68.7979 13.2299C70.1237 14.032 70.95 15.4489 71.0003 16.9908C71.002 16.941 71.0028 16.8911 71.0028 16.8411V9.14251C71.0028 7.54297 70.1665 6.0598 68.7979 5.23195Z" fill="url(#paint4_radial_2_339)"/>
        <path d="M68.7979 5.23195L61.9425 1.08526C60.5333 0.232864 58.7785 0.206459 57.3478 1.00604L57.2117 1.08842C55.843 1.91628 55.0068 3.39942 55.0068 4.99898V10.417L57.2117 9.08327C58.6659 8.20366 60.4882 8.20366 61.9425 9.08327L68.7979 13.2299C70.1237 14.032 70.95 15.4489 71.0003 16.9908C71.002 16.941 71.0028 16.8911 71.0028 16.8411V9.14251C71.0028 7.54297 70.1665 6.0598 68.7979 5.23195Z" fill="url(#paint5_linear_2_339)"/>
    </g>
    <defs>
        <radialGradient id="paint0_radial_2_339" cx="0" cy="0" r="1" gradientUnits="userSpaceOnUse" gradientTransform="translate(55.8172 5.35934) rotate(110.528) scale(19.0613 33.2469)">
            <stop offset="0.06441" stop-color="#AE7FE2"/>
            <stop offset="1" stop-color="#0078D4"/>
        </radialGradient>
        <linearGradient id="paint1_linear_2_339" x1="55.8705" y1="20.9155" x2="53.1508" y2="16.2117" gradientUnits="userSpaceOnUse">
            <stop stop-color="#114A8B"/>
            <stop offset="1" stop-color="#0078D4" stop-opacity="0"/>
        </linearGradient>
        <radialGradient id="paint2_radial_2_339" cx="0" cy="0" r="1" gradientUnits="userSpaceOnUse" gradientTransform="translate(51.8247 20.0487) rotate(-8.36717) scale(17.7386 11.7175)">
            <stop offset="0.133928" stop-color="#D59DFF"/>
            <stop offset="1" stop-color="#5E438F"/>
        </radialGradient>
        <linearGradient id="paint3_linear_2_339" x1="68.9214" y1="13.7792" x2="66.007" y2="17.9581" gradientUnits="userSpaceOnUse">
            <stop stop-color="#493474"/>
            <stop offset="1" stop-color="#8C66BA" stop-opacity="0"/>
        </linearGradient>
        <radialGradient id="paint4_radial_2_339" cx="0" cy="0" r="1" gradientUnits="userSpaceOnUse" gradientTransform="translate(69.3204 14.4232) rotate(-165.772) scale(14.238 23.9684)">
            <stop offset="0.0584996" stop-color="#50E6FF"/>
            <stop offset="1" stop-color="#436DCD"/>
        </radialGradient>
        <linearGradient id="paint5_linear_2_339" x1="55.5642" y1="1.028" x2="59.8552" y2="1.028" gradientUnits="userSpaceOnUse">
            <stop stop-color="#2D3F80"/>
            <stop offset="1" stop-color="#436DCD" stop-opacity="0"/>
        </linearGradient>
        <clipPath id="clip0_2_339">
            <rect width="25.9854" height="25.9854" fill="white"/>
        </clipPath>
        <clipPath id="clip1_2_339">
            <rect width="22.8514" height="25.1366" fill="white" transform="translate(48.1513 0.424411)"/>
        </clipPath>
    </defs>
</svg>
